<svg width="1191" height="682" viewBox="0 0 1191 682" fill="none" xmlns="http://www.w3.org/2000/svg">
<g filter="url(#filter0_f_101_324)">
<path d="M878.418 371.822L888.056 389.756L887.202 399.272L957.108 399.638L952.35 450.878H863.656L865.242 433.31H925.022L946.738 443.68L937.588 421.842L937.954 417.45L868.048 417.084L872.928 364.746H960.28L958.694 382.192H896.23L878.418 371.822Z" fill="#FFDD00"/>
</g>
<g filter="url(#filter1_f_101_324)">
<path d="M860.47 435.018L859.006 450.756H789.1L796.908 366.332H866.814L857.664 383.778H820.21L804.106 373.896L813.622 388.78L809.352 435.018H860.47Z" fill="#FFDD00"/>
</g>
<g filter="url(#filter2_f_101_324)">
<path d="M787.07 366.332L779.262 451.244H761.816L769.624 366.332H787.07Z" fill="#FFDD00"/>
</g>
<g filter="url(#filter3_f_101_324)">
<path d="M765.24 364.746L763.654 382.192H737.424L718.27 371.822L727.908 389.634L722.54 448.316H705.094L711.194 382.192H676.18L677.766 364.746H765.24Z" fill="#FFDD00"/>
</g>
<g filter="url(#filter4_f_101_324)">
<path d="M615.323 417.938L609.223 450.756H589.947L606.783 366.332H669.369L671.443 450.756H651.923L651.801 429.406L615.323 417.938ZM651.557 383.778H628.621L611.785 374.018L620.447 389.512L618.617 399.516L651.679 410.008L651.557 383.778Z" fill="#FFDD00"/>
</g>
<g filter="url(#filter5_f_101_324)">
<path d="M517.404 391.098L511.792 451.244H494.346L502.154 366.332H525.09L536.436 387.56H551.442L566.204 366.332H590.848L582.918 451.244H565.472L571.206 388.902L559.982 405.006H524.846L517.404 391.098Z" fill="#FFDD00"/>
</g>
<g filter="url(#filter6_f_101_324)">
<path d="M489.897 435.018L488.433 451.244H420.479L428.287 366.332H495.997L486.846 383.778H450.247L435.485 373.896L444.879 389.024L443.903 400.004H477.575L475.867 418.792H442.195L440.731 435.018H489.897Z" fill="#FFDD00"/>
</g>
<g filter="url(#filter7_f_101_324)">
<path d="M394.518 435.018L400.862 366.332H418.43L410.5 451.244H379.268L356.21 391.098L350.598 450.878H333.152L341.082 365.112H366.214L391.956 435.018H394.518Z" fill="#FFDD00"/>
</g>
<g filter="url(#filter8_f_101_324)">
<path d="M331 366.332L323.192 451.244H305.746L313.554 366.332H331Z" fill="#FFDD00"/>
</g>
<g filter="url(#filter9_f_101_324)">
<path d="M301.585 435.018L300.121 450.756H230.215L238.023 366.332H307.929L298.779 383.778H261.325L245.221 373.896L254.615 388.78L250.345 435.018H301.585Z" fill="#FFDD00"/>
</g>
<g filter="url(#filter10_f_101_324)">
<path d="M737.762 300.018L744.106 231.332H761.552L753.744 316.244H722.512L699.332 256.098L693.842 315.878H676.396L684.326 230.112H709.336L735.2 300.018H737.762Z" fill="#FFDD00"/>
</g>
<g filter="url(#filter11_f_101_324)">
<path d="M589.062 316.244L596.992 231.332H674.34L666.533 316.244H589.062ZM602.97 238.896L612.242 254.512L608.094 300.018H650.551L655.309 248.778H617.488L602.97 238.896Z" fill="#FFDD00"/>
</g>
<g filter="url(#filter12_f_101_324)">
<path d="M584.974 300.018L583.51 316.244H515.434L523.364 231.332H591.074L581.924 248.778H545.324L530.562 238.896L539.956 254.024L538.98 265.004H572.652L570.944 283.792H537.272L535.686 300.018H584.974Z" fill="#FFDD00"/>
</g>
<g filter="url(#filter13_f_101_324)">
<path d="M489.593 300.018L495.937 231.332H513.383L505.575 316.244H474.343L451.163 256.098L445.673 315.878H428.227L436.157 230.112H461.167L487.031 300.018H489.593Z" fill="#FFDD00"/>
</g>
<path d="M855.187 355.312L864.035 371.776L863.251 380.512L927.427 380.848L923.059 427.888H841.635L843.091 411.76H897.971L917.907 421.28L909.507 401.232L909.843 397.2L845.667 396.864L850.147 348.816H930.339L928.883 364.832H871.539L855.187 355.312Z" fill="white"/>
<path d="M838.709 413.328L837.365 427.776H773.189L780.357 350.272H844.533L836.133 366.288H801.749L786.965 357.216L795.701 370.88L791.781 413.328H838.709Z" fill="white"/>
<path d="M771.327 350.272L764.159 428.224H748.143L755.311 350.272H771.327Z" fill="white"/>
<path d="M751.287 348.816L749.831 364.832H725.751L708.167 355.312L717.015 371.664L712.087 425.536H696.071L701.671 364.832H669.527L670.983 348.816H751.287Z" fill="white"/>
<path d="M613.657 397.648L608.057 427.776H590.361L605.817 350.272H663.273L665.177 427.776H647.257L647.145 408.176L613.657 397.648ZM646.921 366.288H625.865L610.409 357.328L618.361 371.552L616.681 380.736L647.033 390.368L646.921 366.288Z" fill="white"/>
<path d="M523.764 373.008L518.612 428.224H502.596L509.764 350.272H530.82L541.236 369.76H555.012L568.564 350.272H591.188L583.908 428.224H567.892L573.156 370.992L562.852 385.776H530.596L523.764 373.008Z" fill="white"/>
<path d="M498.511 413.328L497.167 428.224H434.783L441.951 350.272H504.111L495.711 366.288H462.111L448.559 357.216L457.183 371.104L456.287 381.184H487.199L485.631 398.432H454.719L453.375 413.328H498.511Z" fill="white"/>
<path d="M410.951 413.328L416.775 350.272H432.903L425.623 428.224H396.951L375.783 373.008L370.631 427.888H354.615L361.895 349.152H384.967L408.599 413.328H410.951Z" fill="white"/>
<path d="M352.639 350.272L345.471 428.224H329.455L336.623 350.272H352.639Z" fill="white"/>
<path d="M325.635 413.328L324.291 427.776H260.115L267.283 350.272H331.459L323.059 366.288H288.675L273.891 357.216L282.515 370.88L278.595 413.328H325.635Z" fill="white"/>
<path d="M726.061 318.328L731.885 255.272H747.901L740.733 333.224H712.061L690.781 278.008L685.741 332.888H669.725L677.005 254.152H699.965L723.709 318.328H726.061Z" fill="white"/>
<path d="M589.549 333.224L596.829 255.272H667.837L660.669 333.224H589.549ZM602.317 262.216L610.829 276.552L607.021 318.328H645.997L650.365 271.288H615.645L602.317 262.216Z" fill="white"/>
<path d="M585.795 318.328L584.451 333.224H521.955L529.235 255.272H591.395L582.995 271.288H549.395L535.843 262.216L544.467 276.104L543.571 286.184H574.483L572.915 303.432H542.003L540.547 318.328H585.795Z" fill="white"/>
<path d="M498.232 318.328L504.056 255.272H520.072L512.904 333.224H484.232L462.952 278.008L457.912 332.888H441.896L449.176 254.152H472.136L495.88 318.328H498.232Z" fill="white"/>
<defs>
<filter id="filter0_f_101_324" x="633.656" y="134.746" width="556.625" height="546.132" filterUnits="userSpaceOnUse" color-interpolation-filters="sRGB">
<feFlood flood-opacity="0" result="BackgroundImageFix"/>
<feBlend mode="normal" in="SourceGraphic" in2="BackgroundImageFix" result="shape"/>
<feGaussianBlur stdDeviation="115" result="effect1_foregroundBlur_101_324"/>
</filter>
<filter id="filter1_f_101_324" x="559.1" y="136.332" width="537.715" height="544.424" filterUnits="userSpaceOnUse" color-interpolation-filters="sRGB">
<feFlood flood-opacity="0" result="BackgroundImageFix"/>
<feBlend mode="normal" in="SourceGraphic" in2="BackgroundImageFix" result="shape"/>
<feGaussianBlur stdDeviation="115" result="effect1_foregroundBlur_101_324"/>
</filter>
<filter id="filter2_f_101_324" x="531.816" y="136.332" width="485.254" height="544.912" filterUnits="userSpaceOnUse" color-interpolation-filters="sRGB">
<feFlood flood-opacity="0" result="BackgroundImageFix"/>
<feBlend mode="normal" in="SourceGraphic" in2="BackgroundImageFix" result="shape"/>
<feGaussianBlur stdDeviation="115" result="effect1_foregroundBlur_101_324"/>
</filter>
<filter id="filter3_f_101_324" x="446.18" y="134.746" width="549.061" height="543.57" filterUnits="userSpaceOnUse" color-interpolation-filters="sRGB">
<feFlood flood-opacity="0" result="BackgroundImageFix"/>
<feBlend mode="normal" in="SourceGraphic" in2="BackgroundImageFix" result="shape"/>
<feGaussianBlur stdDeviation="115" result="effect1_foregroundBlur_101_324"/>
</filter>
<filter id="filter4_f_101_324" x="359.947" y="136.332" width="541.496" height="544.424" filterUnits="userSpaceOnUse" color-interpolation-filters="sRGB">
<feFlood flood-opacity="0" result="BackgroundImageFix"/>
<feBlend mode="normal" in="SourceGraphic" in2="BackgroundImageFix" result="shape"/>
<feGaussianBlur stdDeviation="115" result="effect1_foregroundBlur_101_324"/>
</filter>
<filter id="filter5_f_101_324" x="264.346" y="136.332" width="556.502" height="544.912" filterUnits="userSpaceOnUse" color-interpolation-filters="sRGB">
<feFlood flood-opacity="0" result="BackgroundImageFix"/>
<feBlend mode="normal" in="SourceGraphic" in2="BackgroundImageFix" result="shape"/>
<feGaussianBlur stdDeviation="115" result="effect1_foregroundBlur_101_324"/>
</filter>
<filter id="filter6_f_101_324" x="190.479" y="136.332" width="535.518" height="544.912" filterUnits="userSpaceOnUse" color-interpolation-filters="sRGB">
<feFlood flood-opacity="0" result="BackgroundImageFix"/>
<feBlend mode="normal" in="SourceGraphic" in2="BackgroundImageFix" result="shape"/>
<feGaussianBlur stdDeviation="115" result="effect1_foregroundBlur_101_324"/>
</filter>
<filter id="filter7_f_101_324" x="103.152" y="135.112" width="545.277" height="546.132" filterUnits="userSpaceOnUse" color-interpolation-filters="sRGB">
<feFlood flood-opacity="0" result="BackgroundImageFix"/>
<feBlend mode="normal" in="SourceGraphic" in2="BackgroundImageFix" result="shape"/>
<feGaussianBlur stdDeviation="115" result="effect1_foregroundBlur_101_324"/>
</filter>
<filter id="filter8_f_101_324" x="75.7461" y="136.332" width="485.254" height="544.912" filterUnits="userSpaceOnUse" color-interpolation-filters="sRGB">
<feFlood flood-opacity="0" result="BackgroundImageFix"/>
<feBlend mode="normal" in="SourceGraphic" in2="BackgroundImageFix" result="shape"/>
<feGaussianBlur stdDeviation="115" result="effect1_foregroundBlur_101_324"/>
</filter>
<filter id="filter9_f_101_324" x="0.214844" y="136.332" width="537.715" height="544.424" filterUnits="userSpaceOnUse" color-interpolation-filters="sRGB">
<feFlood flood-opacity="0" result="BackgroundImageFix"/>
<feBlend mode="normal" in="SourceGraphic" in2="BackgroundImageFix" result="shape"/>
<feGaussianBlur stdDeviation="115" result="effect1_foregroundBlur_101_324"/>
</filter>
<filter id="filter10_f_101_324" x="446.396" y="0.112" width="545.156" height="546.132" filterUnits="userSpaceOnUse" color-interpolation-filters="sRGB">
<feFlood flood-opacity="0" result="BackgroundImageFix"/>
<feBlend mode="normal" in="SourceGraphic" in2="BackgroundImageFix" result="shape"/>
<feGaussianBlur stdDeviation="115" result="effect1_foregroundBlur_101_324"/>
</filter>
<filter id="filter11_f_101_324" x="359.062" y="1.33197" width="545.277" height="544.912" filterUnits="userSpaceOnUse" color-interpolation-filters="sRGB">
<feFlood flood-opacity="0" result="BackgroundImageFix"/>
<feBlend mode="normal" in="SourceGraphic" in2="BackgroundImageFix" result="shape"/>
<feGaussianBlur stdDeviation="115" result="effect1_foregroundBlur_101_324"/>
</filter>
<filter id="filter12_f_101_324" x="285.434" y="1.33197" width="535.641" height="544.912" filterUnits="userSpaceOnUse" color-interpolation-filters="sRGB">
<feFlood flood-opacity="0" result="BackgroundImageFix"/>
<feBlend mode="normal" in="SourceGraphic" in2="BackgroundImageFix" result="shape"/>
<feGaussianBlur stdDeviation="115" result="effect1_foregroundBlur_101_324"/>
</filter>
<filter id="filter13_f_101_324" x="198.227" y="0.112" width="545.156" height="546.132" filterUnits="userSpaceOnUse" color-interpolation-filters="sRGB">
<feFlood flood-opacity="0" result="BackgroundImageFix"/>
<feBlend mode="normal" in="SourceGraphic" in2="BackgroundImageFix" result="shape"/>
<feGaussianBlur stdDeviation="115" result="effect1_foregroundBlur_101_324"/>
</filter>
</defs>
</svg>
